<?xml version="1.0" encoding="utf-8" standalone="no"?>
<!DOCTYPE svg PUBLIC "-//W3C//DTD SVG 1.1//EN"
  "http://www.w3.org/Graphics/SVG/1.1/DTD/svg11.dtd">
<!-- Created with matplotlib (https://matplotlib.org/) -->
<svg height="288pt" version="1.1" viewBox="0 0 432 288" width="432pt" xmlns="http://www.w3.org/2000/svg" xmlns:xlink="http://www.w3.org/1999/xlink">
 <metadata>
  <rdf:RDF xmlns:cc="http://creativecommons.org/ns#" xmlns:dc="http://purl.org/dc/elements/1.1/" xmlns:rdf="http://www.w3.org/1999/02/22-rdf-syntax-ns#">
   <cc:Work>
    <dc:type rdf:resource="http://purl.org/dc/dcmitype/StillImage"/>
    <dc:date>2023-06-01T12:31:42.444095</dc:date>
    <dc:format>image/svg+xml</dc:format>
    <dc:creator>
     <cc:Agent>
      <dc:title>Matplotlib v3.3.4, https://matplotlib.org/</dc:title>
     </cc:Agent>
    </dc:creator>
   </cc:Work>
  </rdf:RDF>
 </metadata>
 <defs>
  <style type="text/css">*{stroke-linecap:butt;stroke-linejoin:round;}</style>
 </defs>
 <g id="figure_1">
  <g id="patch_1">
   <path d="M 0 288 
L 432 288 
L 432 0 
L 0 0 
z
" style="fill:#ffffff;"/>
  </g>
  <g id="axes_1">
   <g id="patch_2">
    <path d="M 57.3 246.2 
L 421.2 246.2 
L 421.2 10.8 
L 57.3 10.8 
z
" style="fill:#ffffff;"/>
   </g>
   <g id="PathCollection_1">
    <defs>
     <path d="M 0 3 
C 0.795609 3 1.55874 2.683901 2.12132 2.12132 
C 2.683901 1.55874 3 0.795609 3 0 
C 3 -0.795609 2.683901 -1.55874 2.12132 -2.12132 
C 1.55874 -2.683901 0.795609 -3 0 -3 
C -0.795609 -3 -1.55874 -2.683901 -2.12132 -2.12132 
C -2.683901 -1.55874 -3 -0.795609 -3 0 
C -3 0.795609 -2.683901 1.55874 -2.12132 2.12132 
C -1.55874 2.683901 -0.795609 3 0 3 
z
" id="m92d5bb39f7" style="stroke:#ffffff;stroke-width:0.48;"/>
    </defs>
    <g clip-path="url(#p9bccbc53fe)">
     <use style="fill:#1f77b4;stroke:#ffffff;stroke-width:0.48;" x="57.3" xlink:href="#m92d5bb39f7" y="177.041152"/>
     <use style="fill:#1f77b4;stroke:#ffffff;stroke-width:0.48;" x="122.081248" xlink:href="#m92d5bb39f7" y="211.505831"/>
     <use style="fill:#1f77b4;stroke:#ffffff;stroke-width:0.48;" x="135.794028" xlink:href="#m92d5bb39f7" y="187.586315"/>
     <use style="fill:#1f77b4;stroke:#ffffff;stroke-width:0.48;" x="147.258551" xlink:href="#m92d5bb39f7" y="177.041152"/>
     <use style="fill:#1f77b4;stroke:#ffffff;stroke-width:0.48;" x="94.242581" xlink:href="#m92d5bb39f7" y="213.434824"/>
     <use style="fill:#1f77b4;stroke:#ffffff;stroke-width:0.48;" x="82.901399" xlink:href="#m92d5bb39f7" y="214.849419"/>
     <use style="fill:#1f77b4;stroke:#ffffff;stroke-width:0.48;" x="134.586736" xlink:href="#m92d5bb39f7" y="185.657322"/>
     <use style="fill:#1f77b4;stroke:#ffffff;stroke-width:0.48;" x="126.098384" xlink:href="#m92d5bb39f7" y="185.271523"/>
     <use style="fill:#1f77b4;stroke:#ffffff;stroke-width:0.48;" x="131.663974" xlink:href="#m92d5bb39f7" y="192.023"/>
     <use style="fill:#1f77b4;stroke:#ffffff;stroke-width:0.48;" x="222.675438" xlink:href="#m92d5bb39f7" y="163.216701"/>
     <use style="fill:#1f77b4;stroke:#ffffff;stroke-width:0.48;" x="221.664183" xlink:href="#m92d5bb39f7" y="163.216701"/>
     <use style="fill:#1f77b4;stroke:#ffffff;stroke-width:0.48;" x="212.576259" xlink:href="#m92d5bb39f7" y="163.216701"/>
     <use style="fill:#1f77b4;stroke:#ffffff;stroke-width:0.48;" x="196.005595" xlink:href="#m92d5bb39f7" y="163.216701"/>
     <use style="fill:#1f77b4;stroke:#ffffff;stroke-width:0.48;" x="217.525264" xlink:href="#m92d5bb39f7" y="163.216701"/>
     <use style="fill:#1f77b4;stroke:#ffffff;stroke-width:0.48;" x="223.159304" xlink:href="#m92d5bb39f7" y="163.216701"/>
     <use style="fill:#1f77b4;stroke:#ffffff;stroke-width:0.48;" x="377.271159" xlink:href="#m92d5bb39f7" y="50.113399"/>
     <use style="fill:#1f77b4;stroke:#ffffff;stroke-width:0.48;" x="411.232418" xlink:href="#m92d5bb39f7" y="21.5"/>
     <use style="fill:#1f77b4;stroke:#ffffff;stroke-width:0.48;" x="371.674878" xlink:href="#m92d5bb39f7" y="34.102756"/>
     <use style="fill:#1f77b4;stroke:#ffffff;stroke-width:0.48;" x="404.146352" xlink:href="#m92d5bb39f7" y="61.17296"/>
     <use style="fill:#1f77b4;stroke:#ffffff;stroke-width:0.48;" x="348.879412" xlink:href="#m92d5bb39f7" y="61.23726"/>
     <use style="fill:#1f77b4;stroke:#ffffff;stroke-width:0.48;" x="356.597463" xlink:href="#m92d5bb39f7" y="61.23726"/>
     <use style="fill:#1f77b4;stroke:#ffffff;stroke-width:0.48;" x="421.2" xlink:href="#m92d5bb39f7" y="66.381242"/>
     <use style="fill:#1f77b4;stroke:#ffffff;stroke-width:0.48;" x="351.839715" xlink:href="#m92d5bb39f7" y="65.802544"/>
     <use style="fill:#1f77b4;stroke:#ffffff;stroke-width:0.48;" x="354.414703" xlink:href="#m92d5bb39f7" y="79.048297"/>
     <use style="fill:#1f77b4;stroke:#ffffff;stroke-width:0.48;" x="354.853057" xlink:href="#m92d5bb39f7" y="79.048297"/>
     <use style="fill:#1f77b4;stroke:#ffffff;stroke-width:0.48;" x="358.947922" xlink:href="#m92d5bb39f7" y="79.048297"/>
     <use style="fill:#1f77b4;stroke:#ffffff;stroke-width:0.48;" x="351.830033" xlink:href="#m92d5bb39f7" y="79.048297"/>
     <use style="fill:#1f77b4;stroke:#ffffff;stroke-width:0.48;" x="358.77128" xlink:href="#m92d5bb39f7" y="79.048297"/>
     <use style="fill:#1f77b4;stroke:#ffffff;stroke-width:0.48;" x="346.00675" xlink:href="#m92d5bb39f7" y="79.048297"/>
     <use style="fill:#1f77b4;stroke:#ffffff;stroke-width:0.48;" x="348.337812" xlink:href="#m92d5bb39f7" y="83.99938"/>
     <use style="fill:#1f77b4;stroke:#ffffff;stroke-width:0.48;" x="346.717248" xlink:href="#m92d5bb39f7" y="83.99938"/>
     <use style="fill:#1f77b4;stroke:#ffffff;stroke-width:0.48;" x="334.357265" xlink:href="#m92d5bb39f7" y="84.835277"/>
     <use style="fill:#1f77b4;stroke:#ffffff;stroke-width:0.48;" x="345.618833" xlink:href="#m92d5bb39f7" y="84.899577"/>
     <use style="fill:#1f77b4;stroke:#ffffff;stroke-width:0.48;" x="325.065798" xlink:href="#m92d5bb39f7" y="84.899577"/>
     <use style="fill:#1f77b4;stroke:#ffffff;stroke-width:0.48;" x="348.383315" xlink:href="#m92d5bb39f7" y="83.99938"/>
     <use style="fill:#1f77b4;stroke:#ffffff;stroke-width:0.48;" x="325.984652" xlink:href="#m92d5bb39f7" y="87.407268"/>
     <use style="fill:#1f77b4;stroke:#ffffff;stroke-width:0.48;" x="323.755879" xlink:href="#m92d5bb39f7" y="87.407268"/>
     <use style="fill:#1f77b4;stroke:#ffffff;stroke-width:0.48;" x="339.389674" xlink:href="#m92d5bb39f7" y="87.407268"/>
     <use style="fill:#1f77b4;stroke:#ffffff;stroke-width:0.48;" x="341.687856" xlink:href="#m92d5bb39f7" y="84.256579"/>
     <use style="fill:#1f77b4;stroke:#ffffff;stroke-width:0.48;" x="343.427274" xlink:href="#m92d5bb39f7" y="84.256579"/>
     <use style="fill:#1f77b4;stroke:#ffffff;stroke-width:0.48;" x="338.610366" xlink:href="#m92d5bb39f7" y="84.256579"/>
     <use style="fill:#1f77b4;stroke:#ffffff;stroke-width:0.48;" x="332.19411" xlink:href="#m92d5bb39f7" y="84.256579"/>
     <use style="fill:#1f77b4;stroke:#ffffff;stroke-width:0.48;" x="357.043156" xlink:href="#m92d5bb39f7" y="83.356382"/>
     <use style="fill:#1f77b4;stroke:#ffffff;stroke-width:0.48;" x="346.554863" xlink:href="#m92d5bb39f7" y="83.227783"/>
     <use style="fill:#1f77b4;stroke:#ffffff;stroke-width:0.48;" x="333.947512" xlink:href="#m92d5bb39f7" y="89.400561"/>
     <use style="fill:#1f77b4;stroke:#ffffff;stroke-width:0.48;" x="351.637392" xlink:href="#m92d5bb39f7" y="83.420682"/>
     <use style="fill:#1f77b4;stroke:#ffffff;stroke-width:0.48;" x="351.905355" xlink:href="#m92d5bb39f7" y="83.420682"/>
     <use style="fill:#1f77b4;stroke:#ffffff;stroke-width:0.48;" x="348.842764" xlink:href="#m92d5bb39f7" y="83.420682"/>
     <use style="fill:#1f77b4;stroke:#ffffff;stroke-width:0.48;" x="361.414403" xlink:href="#m92d5bb39f7" y="88.114565"/>
     <use style="fill:#1f77b4;stroke:#ffffff;stroke-width:0.48;" x="368.672122" xlink:href="#m92d5bb39f7" y="89.207662"/>
     <use style="fill:#1f77b4;stroke:#ffffff;stroke-width:0.48;" x="364.005108" xlink:href="#m92d5bb39f7" y="96.409236"/>
     <use style="fill:#1f77b4;stroke:#ffffff;stroke-width:0.48;" x="357.250173" xlink:href="#m92d5bb39f7" y="93.451447"/>
     <use style="fill:#1f77b4;stroke:#ffffff;stroke-width:0.48;" x="373.598736" xlink:href="#m92d5bb39f7" y="87.793067"/>
     <use style="fill:#1f77b4;stroke:#ffffff;stroke-width:0.48;" x="348.238551" xlink:href="#m92d5bb39f7" y="97.823831"/>
     <use style="fill:#1f77b4;stroke:#ffffff;stroke-width:0.48;" x="380.065842" xlink:href="#m92d5bb39f7" y="97.116534"/>
     <use style="fill:#1f77b4;stroke:#ffffff;stroke-width:0.48;" x="327.785833" xlink:href="#m92d5bb39f7" y="97.116534"/>
     <use style="fill:#1f77b4;stroke:#ffffff;stroke-width:0.48;" x="344.211788" xlink:href="#m92d5bb39f7" y="98.724028"/>
     <use style="fill:#1f77b4;stroke:#ffffff;stroke-width:0.48;" x="365.99539" xlink:href="#m92d5bb39f7" y="97.373733"/>
     <use style="fill:#1f77b4;stroke:#ffffff;stroke-width:0.48;" x="335.277122" xlink:href="#m92d5bb39f7" y="98.788328"/>
     <use style="fill:#1f77b4;stroke:#ffffff;stroke-width:0.48;" x="385.568449" xlink:href="#m92d5bb39f7" y="99.238426"/>
     <use style="fill:#1f77b4;stroke:#ffffff;stroke-width:0.48;" x="387.060826" xlink:href="#m92d5bb39f7" y="98.016731"/>
     <use style="fill:#1f77b4;stroke:#ffffff;stroke-width:0.48;" x="342.696986" xlink:href="#m92d5bb39f7" y="95.894838"/>
     <use style="fill:#1f77b4;stroke:#ffffff;stroke-width:0.48;" x="346.436183" xlink:href="#m92d5bb39f7" y="96.280637"/>
     <use style="fill:#1f77b4;stroke:#ffffff;stroke-width:0.48;" x="375.489397" xlink:href="#m92d5bb39f7" y="96.730735"/>
     <use style="fill:#1f77b4;stroke:#ffffff;stroke-width:0.48;" x="324.980249" xlink:href="#m92d5bb39f7" y="96.344936"/>
     <use style="fill:#1f77b4;stroke:#ffffff;stroke-width:0.48;" x="346.595192" xlink:href="#m92d5bb39f7" y="96.280637"/>
     <use style="fill:#1f77b4;stroke:#ffffff;stroke-width:0.48;" x="391.281003" xlink:href="#m92d5bb39f7" y="97.180834"/>
     <use style="fill:#1f77b4;stroke:#ffffff;stroke-width:0.48;" x="278.082284" xlink:href="#m92d5bb39f7" y="121.228949"/>
     <use style="fill:#1f77b4;stroke:#ffffff;stroke-width:0.48;" x="278.798184" xlink:href="#m92d5bb39f7" y="121.228949"/>
     <use style="fill:#1f77b4;stroke:#ffffff;stroke-width:0.48;" x="277.526024" xlink:href="#m92d5bb39f7" y="121.293249"/>
     <use style="fill:#1f77b4;stroke:#ffffff;stroke-width:0.48;" x="280.018666" xlink:href="#m92d5bb39f7" y="121.293249"/>
     <use style="fill:#1f77b4;stroke:#ffffff;stroke-width:0.48;" x="116.780376" xlink:href="#m92d5bb39f7" y="205.461652"/>
     <use style="fill:#1f77b4;stroke:#ffffff;stroke-width:0.48;" x="136.263889" xlink:href="#m92d5bb39f7" y="205.461652"/>
     <use style="fill:#1f77b4;stroke:#ffffff;stroke-width:0.48;" x="130.274758" xlink:href="#m92d5bb39f7" y="205.590252"/>
     <use style="fill:#1f77b4;stroke:#ffffff;stroke-width:0.48;" x="122.063812" xlink:href="#m92d5bb39f7" y="205.461652"/>
     <use style="fill:#1f77b4;stroke:#ffffff;stroke-width:0.48;" x="94.664575" xlink:href="#m92d5bb39f7" y="205.461652"/>
     <use style="fill:#1f77b4;stroke:#ffffff;stroke-width:0.48;" x="130.102625" xlink:href="#m92d5bb39f7" y="205.525952"/>
     <use style="fill:#1f77b4;stroke:#ffffff;stroke-width:0.48;" x="129.425323" xlink:href="#m92d5bb39f7" y="205.461652"/>
     <use style="fill:#1f77b4;stroke:#ffffff;stroke-width:0.48;" x="144.812283" xlink:href="#m92d5bb39f7" y="205.461652"/>
     <use style="fill:#1f77b4;stroke:#ffffff;stroke-width:0.48;" x="166.121918" xlink:href="#m92d5bb39f7" y="205.461652"/>
     <use style="fill:#1f77b4;stroke:#ffffff;stroke-width:0.48;" x="184.213504" xlink:href="#m92d5bb39f7" y="205.461652"/>
     <use style="fill:#1f77b4;stroke:#ffffff;stroke-width:0.48;" x="337.568094" xlink:href="#m92d5bb39f7" y="113.255777"/>
     <use style="fill:#1f77b4;stroke:#ffffff;stroke-width:0.48;" x="316.226515" xlink:href="#m92d5bb39f7" y="113.320077"/>
     <use style="fill:#1f77b4;stroke:#ffffff;stroke-width:0.48;" x="331.518136" xlink:href="#m92d5bb39f7" y="118.592658"/>
     <use style="fill:#1f77b4;stroke:#ffffff;stroke-width:0.48;" x="310.473904" xlink:href="#m92d5bb39f7" y="119.814354"/>
     <use style="fill:#1f77b4;stroke:#ffffff;stroke-width:0.48;" x="250.426879" xlink:href="#m92d5bb39f7" y="129.52362"/>
     <use style="fill:#1f77b4;stroke:#ffffff;stroke-width:0.48;" x="236.379548" xlink:href="#m92d5bb39f7" y="145.855762"/>
     <use style="fill:#1f77b4;stroke:#ffffff;stroke-width:0.48;" x="242.593515" xlink:href="#m92d5bb39f7" y="129.652219"/>
     <use style="fill:#1f77b4;stroke:#ffffff;stroke-width:0.48;" x="247.775228" xlink:href="#m92d5bb39f7" y="133.767405"/>
     <use style="fill:#1f77b4;stroke:#ffffff;stroke-width:0.48;" x="281.22646" xlink:href="#m92d5bb39f7" y="130.359517"/>
     <use style="fill:#1f77b4;stroke:#ffffff;stroke-width:0.48;" x="261.007333" xlink:href="#m92d5bb39f7" y="137.239592"/>
     <use style="fill:#1f77b4;stroke:#ffffff;stroke-width:0.48;" x="254.236432" xlink:href="#m92d5bb39f7" y="133.060107"/>
     <use style="fill:#1f77b4;stroke:#ffffff;stroke-width:0.48;" x="246.224933" xlink:href="#m92d5bb39f7" y="139.425785"/>
     <use style="fill:#1f77b4;stroke:#ffffff;stroke-width:0.48;" x="259.813087" xlink:href="#m92d5bb39f7" y="130.166617"/>
     <use style="fill:#1f77b4;stroke:#ffffff;stroke-width:0.48;" x="245.742733" xlink:href="#m92d5bb39f7" y="130.616716"/>
     <use style="fill:#1f77b4;stroke:#ffffff;stroke-width:0.48;" x="277.104345" xlink:href="#m92d5bb39f7" y="129.266421"/>
     <use style="fill:#1f77b4;stroke:#ffffff;stroke-width:0.48;" x="255.019247" xlink:href="#m92d5bb39f7" y="129.652219"/>
     <use style="fill:#1f77b4;stroke:#ffffff;stroke-width:0.48;" x="245.663838" xlink:href="#m92d5bb39f7" y="133.253007"/>
     <use style="fill:#1f77b4;stroke:#ffffff;stroke-width:0.48;" x="261.507493" xlink:href="#m92d5bb39f7" y="130.230917"/>
     <use style="fill:#1f77b4;stroke:#ffffff;stroke-width:0.48;" x="260.851983" xlink:href="#m92d5bb39f7" y="137.303892"/>
     <use style="fill:#1f77b4;stroke:#ffffff;stroke-width:0.48;" x="241.997034" xlink:href="#m92d5bb39f7" y="136.725194"/>
     <use style="fill:#1f77b4;stroke:#ffffff;stroke-width:0.48;" x="245.3534" xlink:href="#m92d5bb39f7" y="139.490085"/>
     <use style="fill:#1f77b4;stroke:#ffffff;stroke-width:0.48;" x="248.957341" xlink:href="#m92d5bb39f7" y="129.587919"/>
     <use style="fill:#1f77b4;stroke:#ffffff;stroke-width:0.48;" x="251.63842" xlink:href="#m92d5bb39f7" y="129.52362"/>
     <use style="fill:#1f77b4;stroke:#ffffff;stroke-width:0.48;" x="254.493656" xlink:href="#m92d5bb39f7" y="129.202121"/>
     <use style="fill:#1f77b4;stroke:#ffffff;stroke-width:0.48;" x="243.884821" xlink:href="#m92d5bb39f7" y="129.780819"/>
     <use style="fill:#1f77b4;stroke:#ffffff;stroke-width:0.48;" x="244.684037" xlink:href="#m92d5bb39f7" y="132.802908"/>
     <use style="fill:#1f77b4;stroke:#ffffff;stroke-width:0.48;" x="256.472023" xlink:href="#m92d5bb39f7" y="130.038018"/>
     <use style="fill:#1f77b4;stroke:#ffffff;stroke-width:0.48;" x="252.669964" xlink:href="#m92d5bb39f7" y="130.488116"/>
     <use style="fill:#1f77b4;stroke:#ffffff;stroke-width:0.48;" x="247.120449" xlink:href="#m92d5bb39f7" y="129.33072"/>
     <use style="fill:#1f77b4;stroke:#ffffff;stroke-width:0.48;" x="252.718233" xlink:href="#m92d5bb39f7" y="131.516913"/>
     <use style="fill:#1f77b4;stroke:#ffffff;stroke-width:0.48;" x="253.117313" xlink:href="#m92d5bb39f7" y="133.510206"/>
     <use style="fill:#1f77b4;stroke:#ffffff;stroke-width:0.48;" x="230.940349" xlink:href="#m92d5bb39f7" y="149.39225"/>
     <use style="fill:#1f77b4;stroke:#ffffff;stroke-width:0.48;" x="209.786989" xlink:href="#m92d5bb39f7" y="149.006451"/>
     <use style="fill:#1f77b4;stroke:#ffffff;stroke-width:0.48;" x="230.652782" xlink:href="#m92d5bb39f7" y="149.070751"/>
     <use style="fill:#1f77b4;stroke:#ffffff;stroke-width:0.48;" x="221.103132" xlink:href="#m92d5bb39f7" y="148.813552"/>
     <use style="fill:#1f77b4;stroke:#ffffff;stroke-width:0.48;" x="228.843346" xlink:href="#m92d5bb39f7" y="148.749252"/>
     <use style="fill:#1f77b4;stroke:#ffffff;stroke-width:0.48;" x="230.207731" xlink:href="#m92d5bb39f7" y="149.520849"/>
     <use style="fill:#1f77b4;stroke:#ffffff;stroke-width:0.48;" x="229.312662" xlink:href="#m92d5bb39f7" y="149.26365"/>
     <use style="fill:#1f77b4;stroke:#ffffff;stroke-width:0.48;" x="230.05921" xlink:href="#m92d5bb39f7" y="149.006451"/>
     <use style="fill:#1f77b4;stroke:#ffffff;stroke-width:0.48;" x="215.846161" xlink:href="#m92d5bb39f7" y="148.684952"/>
     <use style="fill:#1f77b4;stroke:#ffffff;stroke-width:0.48;" x="221.071112" xlink:href="#m92d5bb39f7" y="149.26365"/>
     <use style="fill:#1f77b4;stroke:#ffffff;stroke-width:0.48;" x="236.117445" xlink:href="#m92d5bb39f7" y="149.070751"/>
     <use style="fill:#1f77b4;stroke:#ffffff;stroke-width:0.48;" x="230.182834" xlink:href="#m92d5bb39f7" y="149.26365"/>
     <use style="fill:#1f77b4;stroke:#ffffff;stroke-width:0.48;" x="219.523104" xlink:href="#m92d5bb39f7" y="149.26365"/>
     <use style="fill:#1f77b4;stroke:#ffffff;stroke-width:0.48;" x="228.774688" xlink:href="#m92d5bb39f7" y="148.749252"/>
     <use style="fill:#1f77b4;stroke:#ffffff;stroke-width:0.48;" x="226.288712" xlink:href="#m92d5bb39f7" y="149.39225"/>
     <use style="fill:#1f77b4;stroke:#ffffff;stroke-width:0.48;" x="218.596386" xlink:href="#m92d5bb39f7" y="148.620652"/>
     <use style="fill:#1f77b4;stroke:#ffffff;stroke-width:0.48;" x="229.046801" xlink:href="#m92d5bb39f7" y="148.749252"/>
     <use style="fill:#1f77b4;stroke:#ffffff;stroke-width:0.48;" x="210.783464" xlink:href="#m92d5bb39f7" y="148.620652"/>
     <use style="fill:#1f77b4;stroke:#ffffff;stroke-width:0.48;" x="224.149746" xlink:href="#m92d5bb39f7" y="149.39225"/>
     <use style="fill:#1f77b4;stroke:#ffffff;stroke-width:0.48;" x="256.817182" xlink:href="#m92d5bb39f7" y="141.290478"/>
     <use style="fill:#1f77b4;stroke:#ffffff;stroke-width:0.48;" x="327.015663" xlink:href="#m92d5bb39f7" y="132.867208"/>
     <use style="fill:#1f77b4;stroke:#ffffff;stroke-width:0.48;" x="258.634155" xlink:href="#m92d5bb39f7" y="132.867208"/>
     <use style="fill:#1f77b4;stroke:#ffffff;stroke-width:0.48;" x="280.036756" xlink:href="#m92d5bb39f7" y="132.867208"/>
     <use style="fill:#1f77b4;stroke:#ffffff;stroke-width:0.48;" x="301.238766" xlink:href="#m92d5bb39f7" y="132.867208"/>
     <use style="fill:#1f77b4;stroke:#ffffff;stroke-width:0.48;" x="293.049253" xlink:href="#m92d5bb39f7" y="132.28851"/>
     <use style="fill:#1f77b4;stroke:#ffffff;stroke-width:0.48;" x="252.25984" xlink:href="#m92d5bb39f7" y="132.417109"/>
     <use style="fill:#1f77b4;stroke:#ffffff;stroke-width:0.48;" x="256.035543" xlink:href="#m92d5bb39f7" y="132.28851"/>
     <use style="fill:#1f77b4;stroke:#ffffff;stroke-width:0.48;" x="259.461209" xlink:href="#m92d5bb39f7" y="134.217503"/>
     <use style="fill:#1f77b4;stroke:#ffffff;stroke-width:0.48;" x="314.033922" xlink:href="#m92d5bb39f7" y="132.28851"/>
     <use style="fill:#1f77b4;stroke:#ffffff;stroke-width:0.48;" x="146.003708" xlink:href="#m92d5bb39f7" y="179.870342"/>
     <use style="fill:#1f77b4;stroke:#ffffff;stroke-width:0.48;" x="145.091072" xlink:href="#m92d5bb39f7" y="180.384741"/>
     <use style="fill:#1f77b4;stroke:#ffffff;stroke-width:0.48;" x="146.857194" xlink:href="#m92d5bb39f7" y="179.998942"/>
     <use style="fill:#1f77b4;stroke:#ffffff;stroke-width:0.48;" x="142.02285" xlink:href="#m92d5bb39f7" y="184.692825"/>
     <use style="fill:#1f77b4;stroke:#ffffff;stroke-width:0.48;" x="151.237775" xlink:href="#m92d5bb39f7" y="184.692825"/>
     <use style="fill:#1f77b4;stroke:#ffffff;stroke-width:0.48;" x="163.450849" xlink:href="#m92d5bb39f7" y="184.692825"/>
     <use style="fill:#1f77b4;stroke:#ffffff;stroke-width:0.48;" x="146.353833" xlink:href="#m92d5bb39f7" y="184.692825"/>
     <use style="fill:#1f77b4;stroke:#ffffff;stroke-width:0.48;" x="144.445016" xlink:href="#m92d5bb39f7" y="186.493219"/>
     <use style="fill:#1f77b4;stroke:#ffffff;stroke-width:0.48;" x="145.856897" xlink:href="#m92d5bb39f7" y="184.692825"/>
     <use style="fill:#1f77b4;stroke:#ffffff;stroke-width:0.48;" x="159.293894" xlink:href="#m92d5bb39f7" y="184.692825"/>
     <use style="fill:#1f77b4;stroke:#ffffff;stroke-width:0.48;" x="171.395792" xlink:href="#m92d5bb39f7" y="184.692825"/>
     <use style="fill:#1f77b4;stroke:#ffffff;stroke-width:0.48;" x="162.899251" xlink:href="#m92d5bb39f7" y="186.493219"/>
     <use style="fill:#1f77b4;stroke:#ffffff;stroke-width:0.48;" x="169.997471" xlink:href="#m92d5bb39f7" y="184.692825"/>
     <use style="fill:#1f77b4;stroke:#ffffff;stroke-width:0.48;" x="178.474419" xlink:href="#m92d5bb39f7" y="184.692825"/>
     <use style="fill:#1f77b4;stroke:#ffffff;stroke-width:0.48;" x="173.925844" xlink:href="#m92d5bb39f7" y="184.692825"/>
     <use style="fill:#1f77b4;stroke:#ffffff;stroke-width:0.48;" x="144.468987" xlink:href="#m92d5bb39f7" y="184.692825"/>
     <use style="fill:#1f77b4;stroke:#ffffff;stroke-width:0.48;" x="149.96238" xlink:href="#m92d5bb39f7" y="185.657322"/>
     <use style="fill:#1f77b4;stroke:#ffffff;stroke-width:0.48;" x="195.168097" xlink:href="#m92d5bb39f7" y="184.692825"/>
     <use style="fill:#1f77b4;stroke:#ffffff;stroke-width:0.48;" x="161.41012" xlink:href="#m92d5bb39f7" y="186.493219"/>
     <use style="fill:#1f77b4;stroke:#ffffff;stroke-width:0.48;" x="158.037276" xlink:href="#m92d5bb39f7" y="186.493219"/>
     <use style="fill:#1f77b4;stroke:#ffffff;stroke-width:0.48;" x="136.323768" xlink:href="#m92d5bb39f7" y="186.493219"/>
     <use style="fill:#1f77b4;stroke:#ffffff;stroke-width:0.48;" x="146.53397" xlink:href="#m92d5bb39f7" y="185.078624"/>
     <use style="fill:#1f77b4;stroke:#ffffff;stroke-width:0.48;" x="201.436071" xlink:href="#m92d5bb39f7" y="185.207224"/>
     <use style="fill:#1f77b4;stroke:#ffffff;stroke-width:0.48;" x="174.665269" xlink:href="#m92d5bb39f7" y="184.692825"/>
     <use style="fill:#1f77b4;stroke:#ffffff;stroke-width:0.48;" x="127.895263" xlink:href="#m92d5bb39f7" y="184.692825"/>
     <use style="fill:#1f77b4;stroke:#ffffff;stroke-width:0.48;" x="144.634313" xlink:href="#m92d5bb39f7" y="184.692825"/>
     <use style="fill:#1f77b4;stroke:#ffffff;stroke-width:0.48;" x="179.470796" xlink:href="#m92d5bb39f7" y="186.557519"/>
     <use style="fill:#1f77b4;stroke:#ffffff;stroke-width:0.48;" x="149.207969" xlink:href="#m92d5bb39f7" y="186.493219"/>
     <use style="fill:#1f77b4;stroke:#ffffff;stroke-width:0.48;" x="192.01132" xlink:href="#m92d5bb39f7" y="184.692825"/>
     <use style="fill:#1f77b4;stroke:#ffffff;stroke-width:0.48;" x="171.632193" xlink:href="#m92d5bb39f7" y="186.493219"/>
     <use style="fill:#1f77b4;stroke:#ffffff;stroke-width:0.48;" x="136.225433" xlink:href="#m92d5bb39f7" y="184.692825"/>
     <use style="fill:#1f77b4;stroke:#ffffff;stroke-width:0.48;" x="139.692757" xlink:href="#m92d5bb39f7" y="184.692825"/>
     <use style="fill:#1f77b4;stroke:#ffffff;stroke-width:0.48;" x="152.807064" xlink:href="#m92d5bb39f7" y="186.493219"/>
     <use style="fill:#1f77b4;stroke:#ffffff;stroke-width:0.48;" x="304.920523" xlink:href="#m92d5bb39f7" y="106.504301"/>
     <use style="fill:#1f77b4;stroke:#ffffff;stroke-width:0.48;" x="327.154611" xlink:href="#m92d5bb39f7" y="107.275898"/>
     <use style="fill:#1f77b4;stroke:#ffffff;stroke-width:0.48;" x="300.786298" xlink:href="#m92d5bb39f7" y="109.847889"/>
     <use style="fill:#1f77b4;stroke:#ffffff;stroke-width:0.48;" x="314.076157" xlink:href="#m92d5bb39f7" y="107.275898"/>
     <use style="fill:#1f77b4;stroke:#ffffff;stroke-width:0.48;" x="316.139638" xlink:href="#m92d5bb39f7" y="106.504301"/>
     <use style="fill:#1f77b4;stroke:#ffffff;stroke-width:0.48;" x="320.194816" xlink:href="#m92d5bb39f7" y="106.440001"/>
     <use style="fill:#1f77b4;stroke:#ffffff;stroke-width:0.48;" x="208.742637" xlink:href="#m92d5bb39f7" y="152.607238"/>
     <use style="fill:#1f77b4;stroke:#ffffff;stroke-width:0.48;" x="208.241486" xlink:href="#m92d5bb39f7" y="152.607238"/>
     <use style="fill:#1f77b4;stroke:#ffffff;stroke-width:0.48;" x="254.232272" xlink:href="#m92d5bb39f7" y="152.607238"/>
     <use style="fill:#1f77b4;stroke:#ffffff;stroke-width:0.48;" x="224.487825" xlink:href="#m92d5bb39f7" y="151.642742"/>
     <use style="fill:#1f77b4;stroke:#ffffff;stroke-width:0.48;" x="256.608521" xlink:href="#m92d5bb39f7" y="151.642742"/>
     <use style="fill:#1f77b4;stroke:#ffffff;stroke-width:0.48;" x="213.911597" xlink:href="#m92d5bb39f7" y="151.642742"/>
     <use style="fill:#1f77b4;stroke:#ffffff;stroke-width:0.48;" x="243.665464" xlink:href="#m92d5bb39f7" y="151.642742"/>
     <use style="fill:#1f77b4;stroke:#ffffff;stroke-width:0.48;" x="206.541025" xlink:href="#m92d5bb39f7" y="150.742545"/>
     <use style="fill:#1f77b4;stroke:#ffffff;stroke-width:0.48;" x="204.189597" xlink:href="#m92d5bb39f7" y="151.385543"/>
     <use style="fill:#1f77b4;stroke:#ffffff;stroke-width:0.48;" x="202.666976" xlink:href="#m92d5bb39f7" y="151.256943"/>
     <use style="fill:#1f77b4;stroke:#ffffff;stroke-width:0.48;" x="208.051002" xlink:href="#m92d5bb39f7" y="151.321243"/>
     <use style="fill:#1f77b4;stroke:#ffffff;stroke-width:0.48;" x="220.492341" xlink:href="#m92d5bb39f7" y="150.806845"/>
     <use style="fill:#1f77b4;stroke:#ffffff;stroke-width:0.48;" x="224.982115" xlink:href="#m92d5bb39f7" y="150.742545"/>
     <use style="fill:#1f77b4;stroke:#ffffff;stroke-width:0.48;" x="256.792285" xlink:href="#m92d5bb39f7" y="150.871144"/>
     <use style="fill:#1f77b4;stroke:#ffffff;stroke-width:0.48;" x="258.733742" xlink:href="#m92d5bb39f7" y="150.871144"/>
     <use style="fill:#1f77b4;stroke:#ffffff;stroke-width:0.48;" x="247.362633" xlink:href="#m92d5bb39f7" y="150.871144"/>
     <use style="fill:#1f77b4;stroke:#ffffff;stroke-width:0.48;" x="231.882772" xlink:href="#m92d5bb39f7" y="150.871144"/>
     <use style="fill:#1f77b4;stroke:#ffffff;stroke-width:0.48;" x="266.160262" xlink:href="#m92d5bb39f7" y="147.141758"/>
     <use style="fill:#1f77b4;stroke:#ffffff;stroke-width:0.48;" x="217.927993" xlink:href="#m92d5bb39f7" y="147.141758"/>
     <use style="fill:#1f77b4;stroke:#ffffff;stroke-width:0.48;" x="250.15224" xlink:href="#m92d5bb39f7" y="147.141758"/>
     <use style="fill:#1f77b4;stroke:#ffffff;stroke-width:0.48;" x="255.821807" xlink:href="#m92d5bb39f7" y="147.141758"/>
     <use style="fill:#1f77b4;stroke:#ffffff;stroke-width:0.48;" x="245.207068" xlink:href="#m92d5bb39f7" y="147.141758"/>
     <use style="fill:#1f77b4;stroke:#ffffff;stroke-width:0.48;" x="268.549896" xlink:href="#m92d5bb39f7" y="147.141758"/>
     <use style="fill:#1f77b4;stroke:#ffffff;stroke-width:0.48;" x="226.73959" xlink:href="#m92d5bb39f7" y="147.141758"/>
     <use style="fill:#1f77b4;stroke:#ffffff;stroke-width:0.48;" x="271.563478" xlink:href="#m92d5bb39f7" y="147.141758"/>
     <use style="fill:#1f77b4;stroke:#ffffff;stroke-width:0.48;" x="247.18586" xlink:href="#m92d5bb39f7" y="147.141758"/>
     <use style="fill:#1f77b4;stroke:#ffffff;stroke-width:0.48;" x="281.825194" xlink:href="#m92d5bb39f7" y="147.141758"/>
     <use style="fill:#1f77b4;stroke:#ffffff;stroke-width:0.48;" x="236.871289" xlink:href="#m92d5bb39f7" y="147.141758"/>
     <use style="fill:#1f77b4;stroke:#ffffff;stroke-width:0.48;" x="254.600399" xlink:href="#m92d5bb39f7" y="147.141758"/>
     <use style="fill:#1f77b4;stroke:#ffffff;stroke-width:0.48;" x="244.05178" xlink:href="#m92d5bb39f7" y="147.141758"/>
     <use style="fill:#1f77b4;stroke:#ffffff;stroke-width:0.48;" x="253.626055" xlink:href="#m92d5bb39f7" y="147.141758"/>
     <use style="fill:#1f77b4;stroke:#ffffff;stroke-width:0.48;" x="252.531637" xlink:href="#m92d5bb39f7" y="147.141758"/>
     <use style="fill:#1f77b4;stroke:#ffffff;stroke-width:0.48;" x="215.699557" xlink:href="#m92d5bb39f7" y="159.294415"/>
     <use style="fill:#1f77b4;stroke:#ffffff;stroke-width:0.48;" x="243.997968" xlink:href="#m92d5bb39f7" y="147.141758"/>
     <use style="fill:#1f77b4;stroke:#ffffff;stroke-width:0.48;" x="257.012055" xlink:href="#m92d5bb39f7" y="147.141758"/>
     <use style="fill:#1f77b4;stroke:#ffffff;stroke-width:0.48;" x="284.039712" xlink:href="#m92d5bb39f7" y="147.141758"/>
     <use style="fill:#1f77b4;stroke:#ffffff;stroke-width:0.48;" x="232.997" xlink:href="#m92d5bb39f7" y="147.141758"/>
     <use style="fill:#1f77b4;stroke:#ffffff;stroke-width:0.48;" x="234.387328" xlink:href="#m92d5bb39f7" y="147.141758"/>
     <use style="fill:#1f77b4;stroke:#ffffff;stroke-width:0.48;" x="250.209766" xlink:href="#m92d5bb39f7" y="147.141758"/>
     <use style="fill:#1f77b4;stroke:#ffffff;stroke-width:0.48;" x="262.302832" xlink:href="#m92d5bb39f7" y="147.141758"/>
     <use style="fill:#1f77b4;stroke:#ffffff;stroke-width:0.48;" x="269.773035" xlink:href="#m92d5bb39f7" y="147.141758"/>
     <use style="fill:#1f77b4;stroke:#ffffff;stroke-width:0.48;" x="240.680755" xlink:href="#m92d5bb39f7" y="145.212764"/>
     <use style="fill:#1f77b4;stroke:#ffffff;stroke-width:0.48;" x="249.078166" xlink:href="#m92d5bb39f7" y="145.212764"/>
     <use style="fill:#1f77b4;stroke:#ffffff;stroke-width:0.48;" x="273.496886" xlink:href="#m92d5bb39f7" y="147.013158"/>
     <use style="fill:#1f77b4;stroke:#ffffff;stroke-width:0.48;" x="260.847147" xlink:href="#m92d5bb39f7" y="145.212764"/>
     <use style="fill:#1f77b4;stroke:#ffffff;stroke-width:0.48;" x="255.450248" xlink:href="#m92d5bb39f7" y="145.212764"/>
     <use style="fill:#1f77b4;stroke:#ffffff;stroke-width:0.48;" x="250.717093" xlink:href="#m92d5bb39f7" y="144.698366"/>
     <use style="fill:#1f77b4;stroke:#ffffff;stroke-width:0.48;" x="248.298543" xlink:href="#m92d5bb39f7" y="144.634066"/>
     <use style="fill:#1f77b4;stroke:#ffffff;stroke-width:0.48;" x="257.514807" xlink:href="#m92d5bb39f7" y="147.013158"/>
     <use style="fill:#1f77b4;stroke:#ffffff;stroke-width:0.48;" x="220.704073" xlink:href="#m92d5bb39f7" y="147.013158"/>
     <use style="fill:#1f77b4;stroke:#ffffff;stroke-width:0.48;" x="233.786143" xlink:href="#m92d5bb39f7" y="147.013158"/>
     <use style="fill:#1f77b4;stroke:#ffffff;stroke-width:0.48;" x="241.008466" xlink:href="#m92d5bb39f7" y="147.013158"/>
     <use style="fill:#1f77b4;stroke:#ffffff;stroke-width:0.48;" x="235.046442" xlink:href="#m92d5bb39f7" y="147.013158"/>
     <use style="fill:#1f77b4;stroke:#ffffff;stroke-width:0.48;" x="257.204957" xlink:href="#m92d5bb39f7" y="147.013158"/>
     <use style="fill:#1f77b4;stroke:#ffffff;stroke-width:0.48;" x="217.746276" xlink:href="#m92d5bb39f7" y="147.013158"/>
     <use style="fill:#1f77b4;stroke:#ffffff;stroke-width:0.48;" x="234.775114" xlink:href="#m92d5bb39f7" y="148.041954"/>
     <use style="fill:#1f77b4;stroke:#ffffff;stroke-width:0.48;" x="241.113761" xlink:href="#m92d5bb39f7" y="147.784755"/>
     <use style="fill:#1f77b4;stroke:#ffffff;stroke-width:0.48;" x="218.937025" xlink:href="#m92d5bb39f7" y="147.013158"/>
     <use style="fill:#1f77b4;stroke:#ffffff;stroke-width:0.48;" x="227.172541" xlink:href="#m92d5bb39f7" y="147.013158"/>
     <use style="fill:#1f77b4;stroke:#ffffff;stroke-width:0.48;" x="265.239621" xlink:href="#m92d5bb39f7" y="147.013158"/>
     <use style="fill:#1f77b4;stroke:#ffffff;stroke-width:0.48;" x="220.394452" xlink:href="#m92d5bb39f7" y="147.013158"/>
     <use style="fill:#1f77b4;stroke:#ffffff;stroke-width:0.48;" x="219.714601" xlink:href="#m92d5bb39f7" y="147.013158"/>
     <use style="fill:#1f77b4;stroke:#ffffff;stroke-width:0.48;" x="239.745357" xlink:href="#m92d5bb39f7" y="147.013158"/>
     <use style="fill:#1f77b4;stroke:#ffffff;stroke-width:0.48;" x="263.691962" xlink:href="#m92d5bb39f7" y="143.991069"/>
     <use style="fill:#1f77b4;stroke:#ffffff;stroke-width:0.48;" x="271.287553" xlink:href="#m92d5bb39f7" y="143.991069"/>
     <use style="fill:#1f77b4;stroke:#ffffff;stroke-width:0.48;" x="242.511255" xlink:href="#m92d5bb39f7" y="143.991069"/>
     <use style="fill:#1f77b4;stroke:#ffffff;stroke-width:0.48;" x="271.688953" xlink:href="#m92d5bb39f7" y="143.991069"/>
     <use style="fill:#1f77b4;stroke:#ffffff;stroke-width:0.48;" x="230.301372" xlink:href="#m92d5bb39f7" y="143.991069"/>
     <use style="fill:#1f77b4;stroke:#ffffff;stroke-width:0.48;" x="282.23302" xlink:href="#m92d5bb39f7" y="143.991069"/>
     <use style="fill:#1f77b4;stroke:#ffffff;stroke-width:0.48;" x="249.406411" xlink:href="#m92d5bb39f7" y="143.926769"/>
     <use style="fill:#1f77b4;stroke:#ffffff;stroke-width:0.48;" x="280.554603" xlink:href="#m92d5bb39f7" y="143.862469"/>
     <use style="fill:#1f77b4;stroke:#ffffff;stroke-width:0.48;" x="305.894007" xlink:href="#m92d5bb39f7" y="143.926769"/>
     <use style="fill:#1f77b4;stroke:#ffffff;stroke-width:0.48;" x="265.546563" xlink:href="#m92d5bb39f7" y="143.926769"/>
     <use style="fill:#1f77b4;stroke:#ffffff;stroke-width:0.48;" x="311.742459" xlink:href="#m92d5bb39f7" y="143.862469"/>
     <use style="fill:#1f77b4;stroke:#ffffff;stroke-width:0.48;" x="254.776235" xlink:href="#m92d5bb39f7" y="143.862469"/>
     <use style="fill:#1f77b4;stroke:#ffffff;stroke-width:0.48;" x="189.814784" xlink:href="#m92d5bb39f7" y="162.766603"/>
     <use style="fill:#1f77b4;stroke:#ffffff;stroke-width:0.48;" x="178.089977" xlink:href="#m92d5bb39f7" y="166.817488"/>
     <use style="fill:#1f77b4;stroke:#ffffff;stroke-width:0.48;" x="186.011352" xlink:href="#m92d5bb39f7" y="162.766603"/>
     <use style="fill:#1f77b4;stroke:#ffffff;stroke-width:0.48;" x="175.21384" xlink:href="#m92d5bb39f7" y="161.930706"/>
     <use style="fill:#1f77b4;stroke:#ffffff;stroke-width:0.48;" x="181.948768" xlink:href="#m92d5bb39f7" y="162.766603"/>
     <use style="fill:#1f77b4;stroke:#ffffff;stroke-width:0.48;" x="174.65929" xlink:href="#m92d5bb39f7" y="162.766603"/>
     <use style="fill:#1f77b4;stroke:#ffffff;stroke-width:0.48;" x="227.35795" xlink:href="#m92d5bb39f7" y="150.485346"/>
     <use style="fill:#1f77b4;stroke:#ffffff;stroke-width:0.48;" x="260.48746" xlink:href="#m92d5bb39f7" y="150.485346"/>
     <use style="fill:#1f77b4;stroke:#ffffff;stroke-width:0.48;" x="270.453986" xlink:href="#m92d5bb39f7" y="150.421046"/>
     <use style="fill:#1f77b4;stroke:#ffffff;stroke-width:0.48;" x="216.606279" xlink:href="#m92d5bb39f7" y="151.642742"/>
     <use style="fill:#1f77b4;stroke:#ffffff;stroke-width:0.48;" x="209.792021" xlink:href="#m92d5bb39f7" y="150.485346"/>
     <use style="fill:#1f77b4;stroke:#ffffff;stroke-width:0.48;" x="213.618335" xlink:href="#m92d5bb39f7" y="150.613945"/>
     <use style="fill:#1f77b4;stroke:#ffffff;stroke-width:0.48;" x="235.677153" xlink:href="#m92d5bb39f7" y="150.421046"/>
     <use style="fill:#1f77b4;stroke:#ffffff;stroke-width:0.48;" x="223.437167" xlink:href="#m92d5bb39f7" y="150.421046"/>
     <use style="fill:#1f77b4;stroke:#ffffff;stroke-width:0.48;" x="217.932001" xlink:href="#m92d5bb39f7" y="153.828934"/>
     <use style="fill:#1f77b4;stroke:#ffffff;stroke-width:0.48;" x="218.679528" xlink:href="#m92d5bb39f7" y="153.764634"/>
     <use style="fill:#1f77b4;stroke:#ffffff;stroke-width:0.48;" x="204.820482" xlink:href="#m92d5bb39f7" y="153.764634"/>
     <use style="fill:#1f77b4;stroke:#ffffff;stroke-width:0.48;" x="155.971748" xlink:href="#m92d5bb39f7" y="177.169752"/>
     <use style="fill:#1f77b4;stroke:#ffffff;stroke-width:0.48;" x="162.986194" xlink:href="#m92d5bb39f7" y="177.426951"/>
     <use style="fill:#1f77b4;stroke:#ffffff;stroke-width:0.48;" x="161.405796" xlink:href="#m92d5bb39f7" y="177.169752"/>
    </g>
   </g>
   <g id="PolyCollection_1">
    <path clip-path="url(#p9bccbc53fe)" d="M 57.3 225.690494 
L 57.3 235.5 
L 60.975758 233.675083 
L 64.651515 231.8537 
L 68.327273 230.032317 
L 72.00303 228.210934 
L 75.678788 226.389551 
L 79.354545 224.568168 
L 83.030303 222.746786 
L 86.706061 220.925403 
L 90.381818 219.10402 
L 94.057576 217.282637 
L 97.733333 215.461042 
L 101.409091 213.608258 
L 105.084848 211.796169 
L 108.760606 209.997105 
L 112.436364 208.143722 
L 116.112121 206.333434 
L 119.787879 204.514775 
L 123.463636 202.702973 
L 127.139394 200.890834 
L 130.815152 199.070025 
L 134.490909 197.258202 
L 138.166667 195.474268 
L 141.842424 193.668521 
L 145.518182 191.837678 
L 149.193939 189.992311 
L 152.869697 188.176182 
L 156.545455 186.353188 
L 160.221212 184.519443 
L 163.89697 182.703386 
L 167.572727 180.864073 
L 171.248485 179.072245 
L 174.924242 177.297769 
L 178.6 175.530747 
L 182.275758 173.733183 
L 185.951515 171.905048 
L 189.627273 170.072304 
L 193.30303 168.269249 
L 196.978788 166.498398 
L 200.654545 164.712436 
L 204.330303 162.947788 
L 208.006061 161.208686 
L 211.681818 159.446023 
L 215.357576 157.69079 
L 219.033333 155.931256 
L 222.709091 154.138934 
L 226.384848 152.412465 
L 230.060606 150.662794 
L 233.736364 148.938463 
L 237.412121 147.213343 
L 241.087879 145.488863 
L 244.763636 143.764052 
L 248.439394 142.032851 
L 252.115152 140.299575 
L 255.790909 138.615778 
L 259.466667 136.931246 
L 263.142424 135.242366 
L 266.818182 133.533912 
L 270.493939 131.825165 
L 274.169697 130.195118 
L 277.845455 128.478861 
L 281.521212 126.773531 
L 285.19697 125.127297 
L 288.872727 123.45214 
L 292.548485 121.791395 
L 296.224242 120.159551 
L 299.9 118.495046 
L 303.575758 116.818693 
L 307.251515 115.150173 
L 310.927273 113.482523 
L 314.60303 111.832899 
L 318.278788 110.198867 
L 321.954545 108.55049 
L 325.630303 106.900211 
L 329.306061 105.230584 
L 332.981818 103.601177 
L 336.657576 101.966623 
L 340.333333 100.359725 
L 344.009091 98.714372 
L 347.684848 97.019832 
L 351.360606 95.365528 
L 355.036364 93.715131 
L 358.712121 92.069415 
L 362.387879 90.435968 
L 366.063636 88.831462 
L 369.739394 87.206807 
L 373.415152 85.550566 
L 377.090909 83.9148 
L 380.766667 82.290358 
L 384.442424 80.665916 
L 388.118182 79.041473 
L 391.793939 77.415856 
L 395.469697 75.78508 
L 399.145455 74.153274 
L 402.821212 72.511042 
L 406.49697 70.86707 
L 410.172727 69.228726 
L 413.848485 67.609059 
L 417.524242 65.989393 
L 421.2 64.363406 
L 421.2 53.691273 
L 421.2 53.691273 
L 417.524242 55.533606 
L 413.848485 57.375938 
L 410.172727 59.21827 
L 406.49697 61.040565 
L 402.821212 62.857216 
L 399.145455 64.673867 
L 395.469697 66.490518 
L 391.793939 68.321531 
L 388.118182 70.157977 
L 384.442424 72.004655 
L 380.766667 73.842333 
L 377.090909 75.69373 
L 373.415152 77.545362 
L 369.739394 79.373859 
L 366.063636 81.185555 
L 362.387879 83.016951 
L 358.712121 84.860403 
L 355.036364 86.703855 
L 351.360606 88.547307 
L 347.684848 90.377696 
L 344.009091 92.187687 
L 340.333333 94.028894 
L 336.657576 95.865134 
L 332.981818 97.701374 
L 329.306061 99.534711 
L 325.630303 101.36543 
L 321.954545 103.160094 
L 318.278788 104.956414 
L 314.60303 106.769032 
L 310.927273 108.587577 
L 307.251515 110.425234 
L 303.575758 112.220232 
L 299.9 114.045869 
L 296.224242 115.897919 
L 292.548485 117.739546 
L 288.872727 119.513281 
L 285.19697 121.309594 
L 281.521212 123.147656 
L 277.845455 124.956897 
L 274.169697 126.728219 
L 270.493939 128.566099 
L 266.818182 130.366821 
L 263.142424 132.108509 
L 259.466667 133.889436 
L 255.790909 135.611786 
L 252.115152 137.370687 
L 248.439394 139.139873 
L 244.763636 140.950856 
L 241.087879 142.740029 
L 237.412121 144.477208 
L 233.736364 146.203077 
L 230.060606 147.924287 
L 226.384848 149.638755 
L 222.709091 151.339987 
L 219.033333 153.038187 
L 215.357576 154.724186 
L 211.681818 156.388853 
L 208.006061 158.109549 
L 204.330303 159.780981 
L 200.654545 161.477867 
L 196.978788 163.150427 
L 193.30303 164.787298 
L 189.627273 166.438552 
L 185.951515 168.100213 
L 182.275758 169.744752 
L 178.6 171.388953 
L 174.924242 173.033552 
L 171.248485 174.693454 
L 167.572727 176.344311 
L 163.89697 177.995564 
L 160.221212 179.673088 
L 156.545455 181.297914 
L 152.869697 182.957207 
L 149.193939 184.6196 
L 145.518182 186.256796 
L 141.842424 187.90152 
L 138.166667 189.541613 
L 134.490909 191.173931 
L 130.815152 192.78711 
L 127.139394 194.410418 
L 123.463636 196.054812 
L 119.787879 197.705037 
L 116.112121 199.387554 
L 112.436364 201.07028 
L 108.760606 202.734271 
L 105.084848 204.368887 
L 101.409091 206.003504 
L 97.733333 207.638121 
L 94.057576 209.292759 
L 90.381818 210.950423 
L 86.706061 212.5931 
L 83.030303 214.229348 
L 79.354545 215.865685 
L 75.678788 217.502244 
L 72.00303 219.138804 
L 68.327273 220.775364 
L 64.651515 222.411924 
L 60.975758 224.048483 
L 57.3 225.690494 
z
" style="fill:#1f77b4;fill-opacity:0.15;"/>
   </g>
   <g id="matplotlib.axis_1">
    <g id="xtick_1">
     <g id="line2d_1">
      <defs>
       <path d="M 0 0 
L 0 3.5 
" id="m2c2ac8f5a7" style="stroke:#000000;stroke-width:0.8;"/>
      </defs>
      <g>
       <use style="stroke:#000000;stroke-width:0.8;" x="79.033416" xlink:href="#m2c2ac8f5a7" y="246.2"/>
      </g>
     </g>
     <g id="text_1">
      <!-- 5 -->
      <g transform="translate(75.852166 260.798437)scale(0.1 -0.1)">
       <defs>
        <path d="M 10.796875 72.90625 
L 49.515625 72.90625 
L 49.515625 64.59375 
L 19.828125 64.59375 
L 19.828125 46.734375 
Q 21.96875 47.46875 24.109375 47.828125 
Q 26.265625 48.1875 28.421875 48.1875 
Q 40.625 48.1875 47.75 41.5 
Q 54.890625 34.8125 54.890625 23.390625 
Q 54.890625 11.625 47.5625 5.09375 
Q 40.234375 -1.421875 26.90625 -1.421875 
Q 22.3125 -1.421875 17.546875 -0.640625 
Q 12.796875 0.140625 7.71875 1.703125 
L 7.71875 11.625 
Q 12.109375 9.234375 16.796875 8.0625 
Q 21.484375 6.890625 26.703125 6.890625 
Q 35.15625 6.890625 40.078125 11.328125 
Q 45.015625 15.765625 45.015625 23.390625 
Q 45.015625 31 40.078125 35.4375 
Q 35.15625 39.890625 26.703125 39.890625 
Q 22.75 39.890625 18.8125 39.015625 
Q 14.890625 38.140625 10.796875 36.28125 
z
" id="DejaVuSans-53"/>
       </defs>
       <use xlink:href="#DejaVuSans-53"/>
      </g>
     </g>
    </g>
    <g id="xtick_2">
     <g id="line2d_2">
      <g>
       <use style="stroke:#000000;stroke-width:0.8;" x="124.71372" xlink:href="#m2c2ac8f5a7" y="246.2"/>
      </g>
     </g>
     <g id="text_2">
      <!-- 6 -->
      <g transform="translate(121.53247 260.798437)scale(0.1 -0.1)">
       <defs>
        <path d="M 33.015625 40.375 
Q 26.375 40.375 22.484375 35.828125 
Q 18.609375 31.296875 18.609375 23.390625 
Q 18.609375 15.53125 22.484375 10.953125 
Q 26.375 6.390625 33.015625 6.390625 
Q 39.65625 6.390625 43.53125 10.953125 
Q 47.40625 15.53125 47.40625 23.390625 
Q 47.40625 31.296875 43.53125 35.828125 
Q 39.65625 40.375 33.015625 40.375 
z
M 52.59375 71.296875 
L 52.59375 62.3125 
Q 48.875 64.0625 45.09375 64.984375 
Q 41.3125 65.921875 37.59375 65.921875 
Q 27.828125 65.921875 22.671875 59.328125 
Q 17.53125 52.734375 16.796875 39.40625 
Q 19.671875 43.65625 24.015625 45.921875 
Q 28.375 48.1875 33.59375 48.1875 
Q 44.578125 48.1875 50.953125 41.515625 
Q 57.328125 34.859375 57.328125 23.390625 
Q 57.328125 12.15625 50.6875 5.359375 
Q 44.046875 -1.421875 33.015625 -1.421875 
Q 20.359375 -1.421875 13.671875 8.265625 
Q 6.984375 17.96875 6.984375 36.375 
Q 6.984375 53.65625 15.1875 63.9375 
Q 23.390625 74.21875 37.203125 74.21875 
Q 40.921875 74.21875 44.703125 73.484375 
Q 48.484375 72.75 52.59375 71.296875 
z
" id="DejaVuSans-54"/>
       </defs>
       <use xlink:href="#DejaVuSans-54"/>
      </g>
     </g>
    </g>
    <g id="xtick_3">
     <g id="line2d_3">
      <g>
       <use style="stroke:#000000;stroke-width:0.8;" x="170.394024" xlink:href="#m2c2ac8f5a7" y="246.2"/>
      </g>
     </g>
     <g id="text_3">
      <!-- 7 -->
      <g transform="translate(167.212774 260.798437)scale(0.1 -0.1)">
       <defs>
        <path d="M 8.203125 72.90625 
L 55.078125 72.90625 
L 55.078125 68.703125 
L 28.609375 0 
L 18.3125 0 
L 43.21875 64.59375 
L 8.203125 64.59375 
z
" id="DejaVuSans-55"/>
       </defs>
       <use xlink:href="#DejaVuSans-55"/>
      </g>
     </g>
    </g>
    <g id="xtick_4">
     <g id="line2d_4">
      <g>
       <use style="stroke:#000000;stroke-width:0.8;" x="216.074328" xlink:href="#m2c2ac8f5a7" y="246.2"/>
      </g>
     </g>
     <g id="text_4">
      <!-- 8 -->
      <g transform="translate(212.893078 260.798437)scale(0.1 -0.1)">
       <defs>
        <path d="M 31.78125 34.625 
Q 24.75 34.625 20.71875 30.859375 
Q 16.703125 27.09375 16.703125 20.515625 
Q 16.703125 13.921875 20.71875 10.15625 
Q 24.75 6.390625 31.78125 6.390625 
Q 38.8125 6.390625 42.859375 10.171875 
Q 46.921875 13.96875 46.921875 20.515625 
Q 46.921875 27.09375 42.890625 30.859375 
Q 38.875 34.625 31.78125 34.625 
z
M 21.921875 38.8125 
Q 15.578125 40.375 12.03125 44.71875 
Q 8.5 49.078125 8.5 55.328125 
Q 8.5 64.0625 14.71875 69.140625 
Q 20.953125 74.21875 31.78125 74.21875 
Q 42.671875 74.21875 48.875 69.140625 
Q 55.078125 64.0625 55.078125 55.328125 
Q 55.078125 49.078125 51.53125 44.71875 
Q 48 40.375 41.703125 38.8125 
Q 48.828125 37.15625 52.796875 32.3125 
Q 56.78125 27.484375 56.78125 20.515625 
Q 56.78125 9.90625 50.3125 4.234375 
Q 43.84375 -1.421875 31.78125 -1.421875 
Q 19.734375 -1.421875 13.25 4.234375 
Q 6.78125 9.90625 6.78125 20.515625 
Q 6.78125 27.484375 10.78125 32.3125 
Q 14.796875 37.15625 21.921875 38.8125 
z
M 18.3125 54.390625 
Q 18.3125 48.734375 21.84375 45.5625 
Q 25.390625 42.390625 31.78125 42.390625 
Q 38.140625 42.390625 41.71875 45.5625 
Q 45.3125 48.734375 45.3125 54.390625 
Q 45.3125 60.0625 41.71875 63.234375 
Q 38.140625 66.40625 31.78125 66.40625 
Q 25.390625 66.40625 21.84375 63.234375 
Q 18.3125 60.0625 18.3125 54.390625 
z
" id="DejaVuSans-56"/>
       </defs>
       <use xlink:href="#DejaVuSans-56"/>
      </g>
     </g>
    </g>
    <g id="xtick_5">
     <g id="line2d_5">
      <g>
       <use style="stroke:#000000;stroke-width:0.8;" x="261.754632" xlink:href="#m2c2ac8f5a7" y="246.2"/>
      </g>
     </g>
     <g id="text_5">
      <!-- 9 -->
      <g transform="translate(258.573382 260.798437)scale(0.1 -0.1)">
       <defs>
        <path d="M 10.984375 1.515625 
L 10.984375 10.5 
Q 14.703125 8.734375 18.5 7.8125 
Q 22.3125 6.890625 25.984375 6.890625 
Q 35.75 6.890625 40.890625 13.453125 
Q 46.046875 20.015625 46.78125 33.40625 
Q 43.953125 29.203125 39.59375 26.953125 
Q 35.25 24.703125 29.984375 24.703125 
Q 19.046875 24.703125 12.671875 31.3125 
Q 6.296875 37.9375 6.296875 49.421875 
Q 6.296875 60.640625 12.9375 67.421875 
Q 19.578125 74.21875 30.609375 74.21875 
Q 43.265625 74.21875 49.921875 64.515625 
Q 56.59375 54.828125 56.59375 36.375 
Q 56.59375 19.140625 48.40625 8.859375 
Q 40.234375 -1.421875 26.421875 -1.421875 
Q 22.703125 -1.421875 18.890625 -0.6875 
Q 15.09375 0.046875 10.984375 1.515625 
z
M 30.609375 32.421875 
Q 37.25 32.421875 41.125 36.953125 
Q 45.015625 41.5 45.015625 49.421875 
Q 45.015625 57.28125 41.125 61.84375 
Q 37.25 66.40625 30.609375 66.40625 
Q 23.96875 66.40625 20.09375 61.84375 
Q 16.21875 57.28125 16.21875 49.421875 
Q 16.21875 41.5 20.09375 36.953125 
Q 23.96875 32.421875 30.609375 32.421875 
z
" id="DejaVuSans-57"/>
       </defs>
       <use xlink:href="#DejaVuSans-57"/>
      </g>
     </g>
    </g>
    <g id="xtick_6">
     <g id="line2d_6">
      <g>
       <use style="stroke:#000000;stroke-width:0.8;" x="307.434936" xlink:href="#m2c2ac8f5a7" y="246.2"/>
      </g>
     </g>
     <g id="text_6">
      <!-- 10 -->
      <g transform="translate(301.072436 260.798437)scale(0.1 -0.1)">
       <defs>
        <path d="M 12.40625 8.296875 
L 28.515625 8.296875 
L 28.515625 63.921875 
L 10.984375 60.40625 
L 10.984375 69.390625 
L 28.421875 72.90625 
L 38.28125 72.90625 
L 38.28125 8.296875 
L 54.390625 8.296875 
L 54.390625 0 
L 12.40625 0 
z
" id="DejaVuSans-49"/>
        <path d="M 31.78125 66.40625 
Q 24.171875 66.40625 20.328125 58.90625 
Q 16.5 51.421875 16.5 36.375 
Q 16.5 21.390625 20.328125 13.890625 
Q 24.171875 6.390625 31.78125 6.390625 
Q 39.453125 6.390625 43.28125 13.890625 
Q 47.125 21.390625 47.125 36.375 
Q 47.125 51.421875 43.28125 58.90625 
Q 39.453125 66.40625 31.78125 66.40625 
z
M 31.78125 74.21875 
Q 44.046875 74.21875 50.515625 64.515625 
Q 56.984375 54.828125 56.984375 36.375 
Q 56.984375 17.96875 50.515625 8.265625 
Q 44.046875 -1.421875 31.78125 -1.421875 
Q 19.53125 -1.421875 13.0625 8.265625 
Q 6.59375 17.96875 6.59375 36.375 
Q 6.59375 54.828125 13.0625 64.515625 
Q 19.53125 74.21875 31.78125 74.21875 
z
" id="DejaVuSans-48"/>
       </defs>
       <use xlink:href="#DejaVuSans-49"/>
       <use x="63.623047" xlink:href="#DejaVuSans-48"/>
      </g>
     </g>
    </g>
    <g id="xtick_7">
     <g id="line2d_7">
      <g>
       <use style="stroke:#000000;stroke-width:0.8;" x="353.11524" xlink:href="#m2c2ac8f5a7" y="246.2"/>
      </g>
     </g>
     <g id="text_7">
      <!-- 11 -->
      <g transform="translate(346.75274 260.798437)scale(0.1 -0.1)">
       <use xlink:href="#DejaVuSans-49"/>
       <use x="63.623047" xlink:href="#DejaVuSans-49"/>
      </g>
     </g>
    </g>
    <g id="xtick_8">
     <g id="line2d_8">
      <g>
       <use style="stroke:#000000;stroke-width:0.8;" x="398.795544" xlink:href="#m2c2ac8f5a7" y="246.2"/>
      </g>
     </g>
     <g id="text_8">
      <!-- 12 -->
      <g transform="translate(392.433044 260.798437)scale(0.1 -0.1)">
       <defs>
        <path d="M 19.1875 8.296875 
L 53.609375 8.296875 
L 53.609375 0 
L 7.328125 0 
L 7.328125 8.296875 
Q 12.9375 14.109375 22.625 23.890625 
Q 32.328125 33.6875 34.8125 36.53125 
Q 39.546875 41.84375 41.421875 45.53125 
Q 43.3125 49.21875 43.3125 52.78125 
Q 43.3125 58.59375 39.234375 62.25 
Q 35.15625 65.921875 28.609375 65.921875 
Q 23.96875 65.921875 18.8125 64.3125 
Q 13.671875 62.703125 7.8125 59.421875 
L 7.8125 69.390625 
Q 13.765625 71.78125 18.9375 73 
Q 24.125 74.21875 28.421875 74.21875 
Q 39.75 74.21875 46.484375 68.546875 
Q 53.21875 62.890625 53.21875 53.421875 
Q 53.21875 48.921875 51.53125 44.890625 
Q 49.859375 40.875 45.40625 35.40625 
Q 44.1875 33.984375 37.640625 27.21875 
Q 31.109375 20.453125 19.1875 8.296875 
z
" id="DejaVuSans-50"/>
       </defs>
       <use xlink:href="#DejaVuSans-49"/>
       <use x="63.623047" xlink:href="#DejaVuSans-50"/>
      </g>
     </g>
    </g>
    <g id="text_9">
     <!-- Run Time (seconds) -->
     <g transform="translate(189.9125 274.476562)scale(0.1 -0.1)">
      <defs>
       <path d="M 44.390625 34.1875 
Q 47.5625 33.109375 50.5625 29.59375 
Q 53.5625 26.078125 56.59375 19.921875 
L 66.609375 0 
L 56 0 
L 46.6875 18.703125 
Q 43.0625 26.03125 39.671875 28.421875 
Q 36.28125 30.8125 30.421875 30.8125 
L 19.671875 30.8125 
L 19.671875 0 
L 9.8125 0 
L 9.8125 72.90625 
L 32.078125 72.90625 
Q 44.578125 72.90625 50.734375 67.671875 
Q 56.890625 62.453125 56.890625 51.90625 
Q 56.890625 45.015625 53.6875 40.46875 
Q 50.484375 35.9375 44.390625 34.1875 
z
M 19.671875 64.796875 
L 19.671875 38.921875 
L 32.078125 38.921875 
Q 39.203125 38.921875 42.84375 42.21875 
Q 46.484375 45.515625 46.484375 51.90625 
Q 46.484375 58.296875 42.84375 61.546875 
Q 39.203125 64.796875 32.078125 64.796875 
z
" id="DejaVuSans-82"/>
       <path d="M 8.5 21.578125 
L 8.5 54.6875 
L 17.484375 54.6875 
L 17.484375 21.921875 
Q 17.484375 14.15625 20.5 10.265625 
Q 23.53125 6.390625 29.59375 6.390625 
Q 36.859375 6.390625 41.078125 11.03125 
Q 45.3125 15.671875 45.3125 23.6875 
L 45.3125 54.6875 
L 54.296875 54.6875 
L 54.296875 0 
L 45.3125 0 
L 45.3125 8.40625 
Q 42.046875 3.421875 37.71875 1 
Q 33.40625 -1.421875 27.6875 -1.421875 
Q 18.265625 -1.421875 13.375 4.4375 
Q 8.5 10.296875 8.5 21.578125 
z
M 31.109375 56 
z
" id="DejaVuSans-117"/>
       <path d="M 54.890625 33.015625 
L 54.890625 0 
L 45.90625 0 
L 45.90625 32.71875 
Q 45.90625 40.484375 42.875 44.328125 
Q 39.84375 48.1875 33.796875 48.1875 
Q 26.515625 48.1875 22.3125 43.546875 
Q 18.109375 38.921875 18.109375 30.90625 
L 18.109375 0 
L 9.078125 0 
L 9.078125 54.6875 
L 18.109375 54.6875 
L 18.109375 46.1875 
Q 21.34375 51.125 25.703125 53.5625 
Q 30.078125 56 35.796875 56 
Q 45.21875 56 50.046875 50.171875 
Q 54.890625 44.34375 54.890625 33.015625 
z
" id="DejaVuSans-110"/>
       <path id="DejaVuSans-32"/>
       <path d="M -0.296875 72.90625 
L 61.375 72.90625 
L 61.375 64.59375 
L 35.5 64.59375 
L 35.5 0 
L 25.59375 0 
L 25.59375 64.59375 
L -0.296875 64.59375 
z
" id="DejaVuSans-84"/>
       <path d="M 9.421875 54.6875 
L 18.40625 54.6875 
L 18.40625 0 
L 9.421875 0 
z
M 9.421875 75.984375 
L 18.40625 75.984375 
L 18.40625 64.59375 
L 9.421875 64.59375 
z
" id="DejaVuSans-105"/>
       <path d="M 52 44.1875 
Q 55.375 50.25 60.0625 53.125 
Q 64.75 56 71.09375 56 
Q 79.640625 56 84.28125 50.015625 
Q 88.921875 44.046875 88.921875 33.015625 
L 88.921875 0 
L 79.890625 0 
L 79.890625 32.71875 
Q 79.890625 40.578125 77.09375 44.375 
Q 74.3125 48.1875 68.609375 48.1875 
Q 61.625 48.1875 57.5625 43.546875 
Q 53.515625 38.921875 53.515625 30.90625 
L 53.515625 0 
L 44.484375 0 
L 44.484375 32.71875 
Q 44.484375 40.625 41.703125 44.40625 
Q 38.921875 48.1875 33.109375 48.1875 
Q 26.21875 48.1875 22.15625 43.53125 
Q 18.109375 38.875 18.109375 30.90625 
L 18.109375 0 
L 9.078125 0 
L 9.078125 54.6875 
L 18.109375 54.6875 
L 18.109375 46.1875 
Q 21.1875 51.21875 25.484375 53.609375 
Q 29.78125 56 35.6875 56 
Q 41.65625 56 45.828125 52.96875 
Q 50 49.953125 52 44.1875 
z
" id="DejaVuSans-109"/>
       <path d="M 56.203125 29.59375 
L 56.203125 25.203125 
L 14.890625 25.203125 
Q 15.484375 15.921875 20.484375 11.0625 
Q 25.484375 6.203125 34.421875 6.203125 
Q 39.59375 6.203125 44.453125 7.46875 
Q 49.3125 8.734375 54.109375 11.28125 
L 54.109375 2.78125 
Q 49.265625 0.734375 44.1875 -0.34375 
Q 39.109375 -1.421875 33.890625 -1.421875 
Q 20.796875 -1.421875 13.15625 6.1875 
Q 5.515625 13.8125 5.515625 26.8125 
Q 5.515625 40.234375 12.765625 48.109375 
Q 20.015625 56 32.328125 56 
Q 43.359375 56 49.78125 48.890625 
Q 56.203125 41.796875 56.203125 29.59375 
z
M 47.21875 32.234375 
Q 47.125 39.59375 43.09375 43.984375 
Q 39.0625 48.390625 32.421875 48.390625 
Q 24.90625 48.390625 20.390625 44.140625 
Q 15.875 39.890625 15.1875 32.171875 
z
" id="DejaVuSans-101"/>
       <path d="M 31 75.875 
Q 24.46875 64.65625 21.28125 53.65625 
Q 18.109375 42.671875 18.109375 31.390625 
Q 18.109375 20.125 21.3125 9.0625 
Q 24.515625 -2 31 -13.1875 
L 23.1875 -13.1875 
Q 15.875 -1.703125 12.234375 9.375 
Q 8.59375 20.453125 8.59375 31.390625 
Q 8.59375 42.28125 12.203125 53.3125 
Q 15.828125 64.359375 23.1875 75.875 
z
" id="DejaVuSans-40"/>
       <path d="M 44.28125 53.078125 
L 44.28125 44.578125 
Q 40.484375 46.53125 36.375 47.5 
Q 32.28125 48.484375 27.875 48.484375 
Q 21.1875 48.484375 17.84375 46.4375 
Q 14.5 44.390625 14.5 40.28125 
Q 14.5 37.15625 16.890625 35.375 
Q 19.28125 33.59375 26.515625 31.984375 
L 29.59375 31.296875 
Q 39.15625 29.25 43.1875 25.515625 
Q 47.21875 21.78125 47.21875 15.09375 
Q 47.21875 7.46875 41.1875 3.015625 
Q 35.15625 -1.421875 24.609375 -1.421875 
Q 20.21875 -1.421875 15.453125 -0.5625 
Q 10.6875 0.296875 5.421875 2 
L 5.421875 11.28125 
Q 10.40625 8.6875 15.234375 7.390625 
Q 20.0625 6.109375 24.8125 6.109375 
Q 31.15625 6.109375 34.5625 8.28125 
Q 37.984375 10.453125 37.984375 14.40625 
Q 37.984375 18.0625 35.515625 20.015625 
Q 33.0625 21.96875 24.703125 23.78125 
L 21.578125 24.515625 
Q 13.234375 26.265625 9.515625 29.90625 
Q 5.8125 33.546875 5.8125 39.890625 
Q 5.8125 47.609375 11.28125 51.796875 
Q 16.75 56 26.8125 56 
Q 31.78125 56 36.171875 55.265625 
Q 40.578125 54.546875 44.28125 53.078125 
z
" id="DejaVuSans-115"/>
       <path d="M 48.78125 52.59375 
L 48.78125 44.1875 
Q 44.96875 46.296875 41.140625 47.34375 
Q 37.3125 48.390625 33.40625 48.390625 
Q 24.65625 48.390625 19.8125 42.84375 
Q 14.984375 37.3125 14.984375 27.296875 
Q 14.984375 17.28125 19.8125 11.734375 
Q 24.65625 6.203125 33.40625 6.203125 
Q 37.3125 6.203125 41.140625 7.25 
Q 44.96875 8.296875 48.78125 10.40625 
L 48.78125 2.09375 
Q 45.015625 0.34375 40.984375 -0.53125 
Q 36.96875 -1.421875 32.421875 -1.421875 
Q 20.0625 -1.421875 12.78125 6.34375 
Q 5.515625 14.109375 5.515625 27.296875 
Q 5.515625 40.671875 12.859375 48.328125 
Q 20.21875 56 33.015625 56 
Q 37.15625 56 41.109375 55.140625 
Q 45.0625 54.296875 48.78125 52.59375 
z
" id="DejaVuSans-99"/>
       <path d="M 30.609375 48.390625 
Q 23.390625 48.390625 19.1875 42.75 
Q 14.984375 37.109375 14.984375 27.296875 
Q 14.984375 17.484375 19.15625 11.84375 
Q 23.34375 6.203125 30.609375 6.203125 
Q 37.796875 6.203125 41.984375 11.859375 
Q 46.1875 17.53125 46.1875 27.296875 
Q 46.1875 37.015625 41.984375 42.703125 
Q 37.796875 48.390625 30.609375 48.390625 
z
M 30.609375 56 
Q 42.328125 56 49.015625 48.375 
Q 55.71875 40.765625 55.71875 27.296875 
Q 55.71875 13.875 49.015625 6.21875 
Q 42.328125 -1.421875 30.609375 -1.421875 
Q 18.84375 -1.421875 12.171875 6.21875 
Q 5.515625 13.875 5.515625 27.296875 
Q 5.515625 40.765625 12.171875 48.375 
Q 18.84375 56 30.609375 56 
z
" id="DejaVuSans-111"/>
       <path d="M 45.40625 46.390625 
L 45.40625 75.984375 
L 54.390625 75.984375 
L 54.390625 0 
L 45.40625 0 
L 45.40625 8.203125 
Q 42.578125 3.328125 38.25 0.953125 
Q 33.9375 -1.421875 27.875 -1.421875 
Q 17.96875 -1.421875 11.734375 6.484375 
Q 5.515625 14.40625 5.515625 27.296875 
Q 5.515625 40.1875 11.734375 48.09375 
Q 17.96875 56 27.875 56 
Q 33.9375 56 38.25 53.625 
Q 42.578125 51.265625 45.40625 46.390625 
z
M 14.796875 27.296875 
Q 14.796875 17.390625 18.875 11.75 
Q 22.953125 6.109375 30.078125 6.109375 
Q 37.203125 6.109375 41.296875 11.75 
Q 45.40625 17.390625 45.40625 27.296875 
Q 45.40625 37.203125 41.296875 42.84375 
Q 37.203125 48.484375 30.078125 48.484375 
Q 22.953125 48.484375 18.875 42.84375 
Q 14.796875 37.203125 14.796875 27.296875 
z
" id="DejaVuSans-100"/>
       <path d="M 8.015625 75.875 
L 15.828125 75.875 
Q 23.140625 64.359375 26.78125 53.3125 
Q 30.421875 42.28125 30.421875 31.390625 
Q 30.421875 20.453125 26.78125 9.375 
Q 23.140625 -1.703125 15.828125 -13.1875 
L 8.015625 -13.1875 
Q 14.5 -2 17.703125 9.0625 
Q 20.90625 20.125 20.90625 31.390625 
Q 20.90625 42.671875 17.703125 53.65625 
Q 14.5 64.65625 8.015625 75.875 
z
" id="DejaVuSans-41"/>
      </defs>
      <use xlink:href="#DejaVuSans-82"/>
      <use x="64.982422" xlink:href="#DejaVuSans-117"/>
      <use x="128.361328" xlink:href="#DejaVuSans-110"/>
      <use x="191.740234" xlink:href="#DejaVuSans-32"/>
      <use x="223.527344" xlink:href="#DejaVuSans-84"/>
      <use x="281.486328" xlink:href="#DejaVuSans-105"/>
      <use x="309.269531" xlink:href="#DejaVuSans-109"/>
      <use x="406.681641" xlink:href="#DejaVuSans-101"/>
      <use x="468.205078" xlink:href="#DejaVuSans-32"/>
      <use x="499.992188" xlink:href="#DejaVuSans-40"/>
      <use x="539.005859" xlink:href="#DejaVuSans-115"/>
      <use x="591.105469" xlink:href="#DejaVuSans-101"/>
      <use x="652.628906" xlink:href="#DejaVuSans-99"/>
      <use x="707.609375" xlink:href="#DejaVuSans-111"/>
      <use x="768.791016" xlink:href="#DejaVuSans-110"/>
      <use x="832.169922" xlink:href="#DejaVuSans-100"/>
      <use x="895.646484" xlink:href="#DejaVuSans-115"/>
      <use x="947.746094" xlink:href="#DejaVuSans-41"/>
     </g>
    </g>
   </g>
   <g id="matplotlib.axis_2">
    <g id="ytick_1">
     <g id="line2d_9">
      <defs>
       <path d="M 0 0 
L -3.5 0 
" id="m0536cc2e1f" style="stroke:#000000;stroke-width:0.8;"/>
      </defs>
      <g>
       <use style="stroke:#000000;stroke-width:0.8;" x="57.3" xlink:href="#m0536cc2e1f" y="226.10188"/>
      </g>
     </g>
     <g id="text_10">
      <!-- 500 -->
      <g transform="translate(31.2125 229.901098)scale(0.1 -0.1)">
       <use xlink:href="#DejaVuSans-53"/>
       <use x="63.623047" xlink:href="#DejaVuSans-48"/>
       <use x="127.246094" xlink:href="#DejaVuSans-48"/>
      </g>
     </g>
    </g>
    <g id="ytick_2">
     <g id="line2d_10">
      <g>
       <use style="stroke:#000000;stroke-width:0.8;" x="57.3" xlink:href="#m0536cc2e1f" y="193.951993"/>
      </g>
     </g>
     <g id="text_11">
      <!-- 1000 -->
      <g transform="translate(24.85 197.751212)scale(0.1 -0.1)">
       <use xlink:href="#DejaVuSans-49"/>
       <use x="63.623047" xlink:href="#DejaVuSans-48"/>
       <use x="127.246094" xlink:href="#DejaVuSans-48"/>
       <use x="190.869141" xlink:href="#DejaVuSans-48"/>
      </g>
     </g>
    </g>
    <g id="ytick_3">
     <g id="line2d_11">
      <g>
       <use style="stroke:#000000;stroke-width:0.8;" x="57.3" xlink:href="#m0536cc2e1f" y="161.802106"/>
      </g>
     </g>
     <g id="text_12">
      <!-- 1500 -->
      <g transform="translate(24.85 165.601325)scale(0.1 -0.1)">
       <use xlink:href="#DejaVuSans-49"/>
       <use x="63.623047" xlink:href="#DejaVuSans-53"/>
       <use x="127.246094" xlink:href="#DejaVuSans-48"/>
       <use x="190.869141" xlink:href="#DejaVuSans-48"/>
      </g>
     </g>
    </g>
    <g id="ytick_4">
     <g id="line2d_12">
      <g>
       <use style="stroke:#000000;stroke-width:0.8;" x="57.3" xlink:href="#m0536cc2e1f" y="129.652219"/>
      </g>
     </g>
     <g id="text_13">
      <!-- 2000 -->
      <g transform="translate(24.85 133.451438)scale(0.1 -0.1)">
       <use xlink:href="#DejaVuSans-50"/>
       <use x="63.623047" xlink:href="#DejaVuSans-48"/>
       <use x="127.246094" xlink:href="#DejaVuSans-48"/>
       <use x="190.869141" xlink:href="#DejaVuSans-48"/>
      </g>
     </g>
    </g>
    <g id="ytick_5">
     <g id="line2d_13">
      <g>
       <use style="stroke:#000000;stroke-width:0.8;" x="57.3" xlink:href="#m0536cc2e1f" y="97.502332"/>
      </g>
     </g>
     <g id="text_14">
      <!-- 2500 -->
      <g transform="translate(24.85 101.301551)scale(0.1 -0.1)">
       <use xlink:href="#DejaVuSans-50"/>
       <use x="63.623047" xlink:href="#DejaVuSans-53"/>
       <use x="127.246094" xlink:href="#DejaVuSans-48"/>
       <use x="190.869141" xlink:href="#DejaVuSans-48"/>
      </g>
     </g>
    </g>
    <g id="ytick_6">
     <g id="line2d_14">
      <g>
       <use style="stroke:#000000;stroke-width:0.8;" x="57.3" xlink:href="#m0536cc2e1f" y="65.352446"/>
      </g>
     </g>
     <g id="text_15">
      <!-- 3000 -->
      <g transform="translate(24.85 69.151664)scale(0.1 -0.1)">
       <defs>
        <path d="M 40.578125 39.3125 
Q 47.65625 37.796875 51.625 33 
Q 55.609375 28.21875 55.609375 21.1875 
Q 55.609375 10.40625 48.1875 4.484375 
Q 40.765625 -1.421875 27.09375 -1.421875 
Q 22.515625 -1.421875 17.65625 -0.515625 
Q 12.796875 0.390625 7.625 2.203125 
L 7.625 11.71875 
Q 11.71875 9.328125 16.59375 8.109375 
Q 21.484375 6.890625 26.8125 6.890625 
Q 36.078125 6.890625 40.9375 10.546875 
Q 45.796875 14.203125 45.796875 21.1875 
Q 45.796875 27.640625 41.28125 31.265625 
Q 36.765625 34.90625 28.71875 34.90625 
L 20.21875 34.90625 
L 20.21875 43.015625 
L 29.109375 43.015625 
Q 36.375 43.015625 40.234375 45.921875 
Q 44.09375 48.828125 44.09375 54.296875 
Q 44.09375 59.90625 40.109375 62.90625 
Q 36.140625 65.921875 28.71875 65.921875 
Q 24.65625 65.921875 20.015625 65.03125 
Q 15.375 64.15625 9.8125 62.3125 
L 9.8125 71.09375 
Q 15.4375 72.65625 20.34375 73.4375 
Q 25.25 74.21875 29.59375 74.21875 
Q 40.828125 74.21875 47.359375 69.109375 
Q 53.90625 64.015625 53.90625 55.328125 
Q 53.90625 49.265625 50.4375 45.09375 
Q 46.96875 40.921875 40.578125 39.3125 
z
" id="DejaVuSans-51"/>
       </defs>
       <use xlink:href="#DejaVuSans-51"/>
       <use x="63.623047" xlink:href="#DejaVuSans-48"/>
       <use x="127.246094" xlink:href="#DejaVuSans-48"/>
       <use x="190.869141" xlink:href="#DejaVuSans-48"/>
      </g>
     </g>
    </g>
    <g id="ytick_7">
     <g id="line2d_15">
      <g>
       <use style="stroke:#000000;stroke-width:0.8;" x="57.3" xlink:href="#m0536cc2e1f" y="33.202559"/>
      </g>
     </g>
     <g id="text_16">
      <!-- 3500 -->
      <g transform="translate(24.85 37.001778)scale(0.1 -0.1)">
       <use xlink:href="#DejaVuSans-51"/>
       <use x="63.623047" xlink:href="#DejaVuSans-53"/>
       <use x="127.246094" xlink:href="#DejaVuSans-48"/>
       <use x="190.869141" xlink:href="#DejaVuSans-48"/>
      </g>
     </g>
    </g>
    <g id="text_17">
     <!-- Number Days in Data Set -->
     <g transform="translate(18.770312 192.127344)rotate(-90)scale(0.1 -0.1)">
      <defs>
       <path d="M 9.8125 72.90625 
L 23.09375 72.90625 
L 55.421875 11.921875 
L 55.421875 72.90625 
L 64.984375 72.90625 
L 64.984375 0 
L 51.703125 0 
L 19.390625 60.984375 
L 19.390625 0 
L 9.8125 0 
z
" id="DejaVuSans-78"/>
       <path d="M 48.6875 27.296875 
Q 48.6875 37.203125 44.609375 42.84375 
Q 40.53125 48.484375 33.40625 48.484375 
Q 26.265625 48.484375 22.1875 42.84375 
Q 18.109375 37.203125 18.109375 27.296875 
Q 18.109375 17.390625 22.1875 11.75 
Q 26.265625 6.109375 33.40625 6.109375 
Q 40.53125 6.109375 44.609375 11.75 
Q 48.6875 17.390625 48.6875 27.296875 
z
M 18.109375 46.390625 
Q 20.953125 51.265625 25.265625 53.625 
Q 29.59375 56 35.59375 56 
Q 45.5625 56 51.78125 48.09375 
Q 58.015625 40.1875 58.015625 27.296875 
Q 58.015625 14.40625 51.78125 6.484375 
Q 45.5625 -1.421875 35.59375 -1.421875 
Q 29.59375 -1.421875 25.265625 0.953125 
Q 20.953125 3.328125 18.109375 8.203125 
L 18.109375 0 
L 9.078125 0 
L 9.078125 75.984375 
L 18.109375 75.984375 
z
" id="DejaVuSans-98"/>
       <path d="M 41.109375 46.296875 
Q 39.59375 47.171875 37.8125 47.578125 
Q 36.03125 48 33.890625 48 
Q 26.265625 48 22.1875 43.046875 
Q 18.109375 38.09375 18.109375 28.8125 
L 18.109375 0 
L 9.078125 0 
L 9.078125 54.6875 
L 18.109375 54.6875 
L 18.109375 46.1875 
Q 20.953125 51.171875 25.484375 53.578125 
Q 30.03125 56 36.53125 56 
Q 37.453125 56 38.578125 55.875 
Q 39.703125 55.765625 41.0625 55.515625 
z
" id="DejaVuSans-114"/>
       <path d="M 19.671875 64.796875 
L 19.671875 8.109375 
L 31.59375 8.109375 
Q 46.6875 8.109375 53.6875 14.9375 
Q 60.6875 21.78125 60.6875 36.53125 
Q 60.6875 51.171875 53.6875 57.984375 
Q 46.6875 64.796875 31.59375 64.796875 
z
M 9.8125 72.90625 
L 30.078125 72.90625 
Q 51.265625 72.90625 61.171875 64.09375 
Q 71.09375 55.28125 71.09375 36.53125 
Q 71.09375 17.671875 61.125 8.828125 
Q 51.171875 0 30.078125 0 
L 9.8125 0 
z
" id="DejaVuSans-68"/>
       <path d="M 34.28125 27.484375 
Q 23.390625 27.484375 19.1875 25 
Q 14.984375 22.515625 14.984375 16.5 
Q 14.984375 11.71875 18.140625 8.90625 
Q 21.296875 6.109375 26.703125 6.109375 
Q 34.1875 6.109375 38.703125 11.40625 
Q 43.21875 16.703125 43.21875 25.484375 
L 43.21875 27.484375 
z
M 52.203125 31.203125 
L 52.203125 0 
L 43.21875 0 
L 43.21875 8.296875 
Q 40.140625 3.328125 35.546875 0.953125 
Q 30.953125 -1.421875 24.3125 -1.421875 
Q 15.921875 -1.421875 10.953125 3.296875 
Q 6 8.015625 6 15.921875 
Q 6 25.140625 12.171875 29.828125 
Q 18.359375 34.515625 30.609375 34.515625 
L 43.21875 34.515625 
L 43.21875 35.40625 
Q 43.21875 41.609375 39.140625 45 
Q 35.0625 48.390625 27.6875 48.390625 
Q 23 48.390625 18.546875 47.265625 
Q 14.109375 46.140625 10.015625 43.890625 
L 10.015625 52.203125 
Q 14.9375 54.109375 19.578125 55.046875 
Q 24.21875 56 28.609375 56 
Q 40.484375 56 46.34375 49.84375 
Q 52.203125 43.703125 52.203125 31.203125 
z
" id="DejaVuSans-97"/>
       <path d="M 32.171875 -5.078125 
Q 28.375 -14.84375 24.75 -17.8125 
Q 21.140625 -20.796875 15.09375 -20.796875 
L 7.90625 -20.796875 
L 7.90625 -13.28125 
L 13.1875 -13.28125 
Q 16.890625 -13.28125 18.9375 -11.515625 
Q 21 -9.765625 23.484375 -3.21875 
L 25.09375 0.875 
L 2.984375 54.6875 
L 12.5 54.6875 
L 29.59375 11.921875 
L 46.6875 54.6875 
L 56.203125 54.6875 
z
" id="DejaVuSans-121"/>
       <path d="M 18.3125 70.21875 
L 18.3125 54.6875 
L 36.8125 54.6875 
L 36.8125 47.703125 
L 18.3125 47.703125 
L 18.3125 18.015625 
Q 18.3125 11.328125 20.140625 9.421875 
Q 21.96875 7.515625 27.59375 7.515625 
L 36.8125 7.515625 
L 36.8125 0 
L 27.59375 0 
Q 17.1875 0 13.234375 3.875 
Q 9.28125 7.765625 9.28125 18.015625 
L 9.28125 47.703125 
L 2.6875 47.703125 
L 2.6875 54.6875 
L 9.28125 54.6875 
L 9.28125 70.21875 
z
" id="DejaVuSans-116"/>
       <path d="M 53.515625 70.515625 
L 53.515625 60.890625 
Q 47.90625 63.578125 42.921875 64.890625 
Q 37.9375 66.21875 33.296875 66.21875 
Q 25.25 66.21875 20.875 63.09375 
Q 16.5 59.96875 16.5 54.203125 
Q 16.5 49.359375 19.40625 46.890625 
Q 22.3125 44.4375 30.421875 42.921875 
L 36.375 41.703125 
Q 47.40625 39.59375 52.65625 34.296875 
Q 57.90625 29 57.90625 20.125 
Q 57.90625 9.515625 50.796875 4.046875 
Q 43.703125 -1.421875 29.984375 -1.421875 
Q 24.8125 -1.421875 18.96875 -0.25 
Q 13.140625 0.921875 6.890625 3.21875 
L 6.890625 13.375 
Q 12.890625 10.015625 18.65625 8.296875 
Q 24.421875 6.59375 29.984375 6.59375 
Q 38.421875 6.59375 43.015625 9.90625 
Q 47.609375 13.234375 47.609375 19.390625 
Q 47.609375 24.75 44.3125 27.78125 
Q 41.015625 30.8125 33.5 32.328125 
L 27.484375 33.5 
Q 16.453125 35.6875 11.515625 40.375 
Q 6.59375 45.0625 6.59375 53.421875 
Q 6.59375 63.09375 13.40625 68.65625 
Q 20.21875 74.21875 32.171875 74.21875 
Q 37.3125 74.21875 42.625 73.28125 
Q 47.953125 72.359375 53.515625 70.515625 
z
" id="DejaVuSans-83"/>
      </defs>
      <use xlink:href="#DejaVuSans-78"/>
      <use x="74.804688" xlink:href="#DejaVuSans-117"/>
      <use x="138.183594" xlink:href="#DejaVuSans-109"/>
      <use x="235.595703" xlink:href="#DejaVuSans-98"/>
      <use x="299.072266" xlink:href="#DejaVuSans-101"/>
      <use x="360.595703" xlink:href="#DejaVuSans-114"/>
      <use x="401.708984" xlink:href="#DejaVuSans-32"/>
      <use x="433.496094" xlink:href="#DejaVuSans-68"/>
      <use x="510.498047" xlink:href="#DejaVuSans-97"/>
      <use x="571.777344" xlink:href="#DejaVuSans-121"/>
      <use x="630.957031" xlink:href="#DejaVuSans-115"/>
      <use x="683.056641" xlink:href="#DejaVuSans-32"/>
      <use x="714.84375" xlink:href="#DejaVuSans-105"/>
      <use x="742.626953" xlink:href="#DejaVuSans-110"/>
      <use x="806.005859" xlink:href="#DejaVuSans-32"/>
      <use x="837.792969" xlink:href="#DejaVuSans-68"/>
      <use x="914.794922" xlink:href="#DejaVuSans-97"/>
      <use x="976.074219" xlink:href="#DejaVuSans-116"/>
      <use x="1015.283203" xlink:href="#DejaVuSans-97"/>
      <use x="1076.5625" xlink:href="#DejaVuSans-32"/>
      <use x="1108.349609" xlink:href="#DejaVuSans-83"/>
      <use x="1171.826172" xlink:href="#DejaVuSans-101"/>
      <use x="1233.349609" xlink:href="#DejaVuSans-116"/>
     </g>
    </g>
   </g>
   <g id="line2d_16">
    <path clip-path="url(#p9bccbc53fe)" d="M 57.3 230.744275 
L 60.975758 229.010725 
L 64.651515 227.277176 
L 68.327273 225.543626 
L 72.00303 223.810076 
L 75.678788 222.076527 
L 79.354545 220.342977 
L 83.030303 218.609428 
L 86.706061 216.875878 
L 90.381818 215.142329 
L 94.057576 213.408779 
L 97.733333 211.67523 
L 101.409091 209.94168 
L 105.084848 208.208131 
L 108.760606 206.474581 
L 112.436364 204.741031 
L 116.112121 203.007482 
L 119.787879 201.273932 
L 123.463636 199.540383 
L 127.139394 197.806833 
L 130.815152 196.073284 
L 134.490909 194.339734 
L 138.166667 192.606185 
L 141.842424 190.872635 
L 145.518182 189.139086 
L 149.193939 187.405536 
L 152.869697 185.671987 
L 156.545455 183.938437 
L 160.221212 182.204887 
L 163.89697 180.471338 
L 167.572727 178.737788 
L 171.248485 177.004239 
L 174.924242 175.270689 
L 178.6 173.53714 
L 182.275758 171.80359 
L 185.951515 170.070041 
L 189.627273 168.336491 
L 193.30303 166.602942 
L 196.978788 164.869392 
L 200.654545 163.135843 
L 204.330303 161.402293 
L 208.006061 159.668743 
L 211.681818 157.935194 
L 215.357576 156.201644 
L 219.033333 154.468095 
L 222.709091 152.734545 
L 226.384848 151.000996 
L 230.060606 149.267446 
L 233.736364 147.533897 
L 237.412121 145.800347 
L 241.087879 144.066798 
L 244.763636 142.333248 
L 248.439394 140.599699 
L 252.115152 138.866149 
L 255.790909 137.132599 
L 259.466667 135.39905 
L 263.142424 133.6655 
L 266.818182 131.931951 
L 270.493939 130.198401 
L 274.169697 128.464852 
L 277.845455 126.731302 
L 281.521212 124.997753 
L 285.19697 123.264203 
L 288.872727 121.530654 
L 292.548485 119.797104 
L 296.224242 118.063555 
L 299.9 116.330005 
L 303.575758 114.596455 
L 307.251515 112.862906 
L 310.927273 111.129356 
L 314.60303 109.395807 
L 318.278788 107.662257 
L 321.954545 105.928708 
L 325.630303 104.195158 
L 329.306061 102.461609 
L 332.981818 100.728059 
L 336.657576 98.99451 
L 340.333333 97.26096 
L 344.009091 95.527411 
L 347.684848 93.793861 
L 351.360606 92.060311 
L 355.036364 90.326762 
L 358.712121 88.593212 
L 362.387879 86.859663 
L 366.063636 85.126113 
L 369.739394 83.392564 
L 373.415152 81.659014 
L 377.090909 79.925465 
L 380.766667 78.191915 
L 384.442424 76.458366 
L 388.118182 74.724816 
L 391.793939 72.991266 
L 395.469697 71.257717 
L 399.145455 69.524167 
L 402.821212 67.790618 
L 406.49697 66.057068 
L 410.172727 64.323519 
L 413.848485 62.589969 
L 417.524242 60.85642 
L 421.2 59.12287 
" style="fill:none;stroke:#1f77b4;stroke-linecap:square;stroke-width:2.25;"/>
   </g>
   <g id="patch_3">
    <path d="M 57.3 246.2 
L 57.3 10.8 
" style="fill:none;stroke:#000000;stroke-linecap:square;stroke-linejoin:miter;stroke-width:0.8;"/>
   </g>
   <g id="patch_4">
    <path d="M 421.2 246.2 
L 421.2 10.8 
" style="fill:none;stroke:#000000;stroke-linecap:square;stroke-linejoin:miter;stroke-width:0.8;"/>
   </g>
   <g id="patch_5">
    <path d="M 57.3 246.2 
L 421.2 246.2 
" style="fill:none;stroke:#000000;stroke-linecap:square;stroke-linejoin:miter;stroke-width:0.8;"/>
   </g>
   <g id="patch_6">
    <path d="M 57.3 10.8 
L 421.2 10.8 
" style="fill:none;stroke:#000000;stroke-linecap:square;stroke-linejoin:miter;stroke-width:0.8;"/>
   </g>
  </g>
 </g>
 <defs>
  <clipPath id="p9bccbc53fe">
   <rect height="235.4" width="363.9" x="57.3" y="10.8"/>
  </clipPath>
 </defs>
</svg>
